<svg xmlns="http://www.w3.org/2000/svg" viewBox="0 0 1600 700" fill="none">
  <g opacity="0.55" fill="#ffffff">
    <path d="M188 183c42-23 132-31 178-8 44 21 48 59 19 84-29 25-81 39-129 42-48 2-113-4-142-28-29-23-17-66 24-90 14-8 31-15 50-20z"/>
    <path d="M390 343c18-17 60-31 88-21 31 11 49 43 36 72-15 34-71 53-111 48-29-4-52-20-58-42-5-20 4-40 20-57 8-8 17-15 25-20z"/>
    <path d="M581 173c71-31 178-41 247-17 51 18 90 56 85 98-8 56-83 91-155 99-94 11-211-8-271-53-34-26-45-71-15-105 24-27 64-47 109-60z"/>
    <path d="M735 341c58-19 138-20 196-4 42 12 83 38 90 71 10 46-44 89-108 109-76 24-193 21-260-11-52-25-73-70-43-109 24-31 74-46 125-56z"/>
    <path d="M1020 202c51-19 116-19 162 0 44 18 68 54 53 86-19 42-88 68-151 66-52-1-111-18-135-50-25-32-7-72 39-93 10-4 21-7 32-9z"/>
    <path d="M1194 316c29-15 78-24 111-14 39 12 58 48 44 81-17 40-74 70-126 74-45 3-96-12-114-43-18-30-1-72 43-92 13-5 27-9 42-6z"/>
    <path d="M1234 470c39-13 91-14 128-4 34 10 62 32 64 60 3 36-39 69-91 84-57 16-136 14-181-8-39-18-54-54-28-84 22-25 66-39 108-48z"/>
    <path d="M907 501c17-9 44-15 64-9 22 6 37 24 34 43-5 26-37 47-70 53-26 4-55-2-69-18-14-16-9-41 10-55 9-6 20-11 31-14z"/>
    <path d="M479 508c29-10 73-15 104-5 24 8 44 27 42 51-3 32-42 59-84 71-44 12-104 8-137-12-26-15-35-44-17-66 17-21 52-32 92-39z"/>
    <path d="M309 521c11-8 29-12 42-8 15 4 23 16 21 29-4 17-23 31-42 36-17 4-36 0-45-10-8-10-6-27 4-36 5-4 12-8 20-11z"/>
  </g>
</svg>
